<svg xmlns="http://www.w3.org/2000/svg" xml:space="preserve" width="100" height="100" viewBox="1 0 100 100"><path fill="#ff7972" d="M31.5 77.2s2.6-1.9 3.4-2.8c.8-.9 2-2.5 2-2.5s-4.7-.7-7.9-1.6c-3.2-.9-9.7-3.7-9.7-3.7s1.3-.4 2.9-1.4c1.6-1.1 2-1.7 2-1.7s-4.7-1.3-7.5-2.4c-2.8-1-7.3-2.9-7.3-2.9s1.4-.2 2.8-1.3 1.5-2.2 1.5-2.2-4.3-1.4-6.7-2.8c-2.4-1.5-5.3-3.7-5.3-3.7s5.2-4 8.7-5.5c3.5-1.5 9.1-2.6 9.1-2.6s-.9-1.5-2.1-2.6c-1.1-1.1-4.2-2.9-4.2-2.9s5.6-1.9 8.3-2.5c2.7-.6 8.2 0 8.2 0s-.1-1.1-1.3-2.2-2.7-2-2.7-2S33 25.4 37 24.4c4-1 10.8-.6 10.8-.6L45 21c-1.1-1.1-2.7-2.3-2.7-2.3s5.4-.4 9.1-.4c3.7.1 9.5 1.1 9.5 1.1s-.7-1-1.4-2.3c-.8-1.3-1.5-2.6-1.5-2.6s7.1 1.7 9.5 2.8c2.4 1 7.6 3.9 7.6 3.9s-.1-1.8-1-3.5-1.8-3-1.8-3 27.7 17.2 28.1 33.5c.1 1.8-.1 3.7-.3 5.5-1.5-.7-3.1-1.3-4.7-1.8-2.3-6.3-4.3-9.9-6.4-12.6-2.4-2.9-6.9-8-9.6-9.1 2.3 1.9 6.8 6.2 9.7 11.8 2.3 4.6 3 5.6 3.8 9.2-3.6-1.1-7.3-1.9-11-2.5l-2.1-.3c-2-4.3-4.4-8.8-7.6-11.5-3.7-3.2-8.3-6.7-11.1-7.5 2.6 1.5 8.7 6.8 11.8 10.9 2.2 3 2.9 5.1 4 7.7-5-.6-9.9-.9-14.9-1.1-2-3.7-4.5-7.5-7.6-9.6-3.4-2.4-7.6-5-10-5.5 2.3 1.1 7.9 5.1 10.8 8.3 2.3 2.6 3 4.4 4.2 6.9-11.1.4-22 1.7-32.8 3.6 9.4-.8 18.9-1 28.3-.6-1.1 1.7-1.8 3-3.8 4.7-2.6 2.2-7.5 4.5-9.5 4.9 2 .1 5.6-1.3 8.6-2.6 2.7-1.3 5.1-4.1 7.1-6.9 1.8.1 3.5.2 5.3.3 2.9.1 5.8.3 8.7.5-1.4 3-2 5-4.6 8.1-3.1 3.6-9.1 8-11.6 9.2 2.7-.4 7.2-3.3 10.8-5.9 3.3-2.4 6-6.8 8.1-11 2.7.3 5.4.6 8.1 1.1 2 .3 3.9.7 5.9 1.2-1.9 4.1-2 4.6-5 8-3.4 3.9-9.1 8.9-11.6 10.4 2.9-.7 8.5-4.7 11.1-6.7 2.4-1.8 5.8-5.5 8.2-11.1 3 .8 5.9 1.9 8.7 3.2-3.1 12.9-11.9 24.1-11.9 24.1s.2-1.7-.5-3.9c-.8-2.2-1-2-1-2s-1.1 2.9-5 6.8-8.9 5-8.9 5 .7-1.1.8-2.4c.1-1.3-.3-2-.3-2s-2.6 1.9-5.3 3c-2.7 1.2-8.6 2.5-8.6 2.5s1.6-1.9 1.9-3c.3-1-.3-1.9-.3-1.9s-3.9 1.5-7.5 1.5-7.7-1.5-7.7-1.5 1-.5 1.7-1.8c.8-1.3.2-1.9.2-1.9s-4.4.5-7.5.1c-2.9-.7-8-2.8-8-2.8z"/></svg>